# xmcd CD database file
# Copyright (C) 1993-1998 Ti Kan
# 
# Track frame offsets:
#     150
#     13855
#     29830
#     42430
#     54490
#     66883
#     79033
#     90675
#     102835
#     116228
#     129563
#     141745
#     153903
#     166228
#     178570
#     192370
#     202903
#     214123
#     226918
#     239100
#     250870
# 
# Disc length: 3508 seconds
# 
# Revision: 1
# Processed by: cddbd v1.4b41PL1 Copyright (c) Steve Scherf et al.
# Submitted via: DiscPlay 4.0.4
# 
DISCID=320db215
DTITLE=Meade Lux Lewis, Jimmy Yancey, Pete Johnson and Albert Ammons - Barrelh
DTITLE=ouse Boogie
DYEAR=1900
DGENRE=
TTITLE0=Honky Tonk Train Blues - Lewis
TTITLE1=Whistlin' Blues - Lewis
TTITLE2=Yancey Stomp - Yancey
TTITLE3=State Street Special - Yancey
TTITLE4=Tell 'em About Me - Yancey
TTITLE5=Five O'Clock Blues - Yancey
TTITLE6=Slow and Easy Blues - Yancey
TTITLE7=The Mellow Blues - Yancey
TTITLE8=Crying In My Sleep - Yancey
TTITLE9=Death Letter Blues - Yancey
TTITLE10=Yancey's Bugle Call - Yancey
TTITLE11=35th and Dearborn - Yancey
TTITLE12=Boogie Woogie Man - Johnson and Ammons
TTITLE13=Boogie Woogie Jump - Johnson and Ammons
TTITLE14=Barrelhouse Boogie - Johnson and Ammons
TTITLE15=Cuttin' The Boogie  - Johnson and Ammons
TTITLE16=Foot Pedal Boogie  - Johnson and Ammons
TTITLE17=Walkin' The Boogie  - Johnson and Ammons
TTITLE18=Sixth Avenue Express  - Johnson and Ammons
TTITLE19=Pine Creek  - Johnson and Ammons
TTITLE20=Movin' The Boogie  - Johnson and Ammons
EXTD=
EXTT0=
EXTT1=
EXTT2=
EXTT3=
EXTT4=
EXTT5=
EXTT6=
EXTT7=
EXTT8=
EXTT9=
EXTT10=
EXTT11=
EXTT12=
EXTT13=
EXTT14=
EXTT15=
EXTT16=
EXTT17=
EXTT18=
EXTT19=
EXTT20=
PLAYORDER=
